<?xml version="1.0" standalone="no"?>
<!DOCTYPE svg PUBLIC "-//W3C//DTD SVG 20010904//EN"
 "http://www.w3.org/TR/2001/REC-SVG-20010904/DTD/svg10.dtd">
<svg version="1.0" xmlns="http://www.w3.org/2000/svg"
 width="499.000000pt" height="499.000000pt" viewBox="0 0 499.000000 499.000000"
 preserveAspectRatio="xMidYMid meet">
<metadata>
Created by potrace 1.14, written by Peter Selinger 2001-2017
</metadata>
<g transform="translate(0.000000,499.000000) scale(0.100000,-0.100000)"
fill="#000000" stroke="none">
<path d="M244 3261 c-30 -9 -77 -49 -69 -61 3 -5 1 -10 -5 -10 -7 0 -10 -7 -7
-15 4 -8 3 -16 -1 -19 -10 -6 -8 -1102 2 -1141 8 -30 69 -78 104 -82 9 -1 36
-4 60 -6 23 -3 40 -2 37 3 -3 4 11 4 29 0 22 -5 39 -3 45 3 6 6 11 7 11 2 0
-6 18 -10 39 -10 22 -1 37 3 35 7 -3 4 5 4 18 -1 13 -4 35 -5 50 0 15 4 30 4
33 -1 6 -9 24 -8 40 2 6 4 17 3 25 -2 8 -5 22 -5 32 1 10 5 18 6 18 1 0 -5 7
-9 15 -9 8 0 15 4 15 8 0 4 16 3 35 -1 21 -5 38 -4 41 2 3 5 11 4 20 -3 10 -8
14 -8 14 0 0 13 22 11 32 -3 4 -6 13 -4 22 3 13 11 16 11 16 0 0 -12 2 -12 9
0 6 9 11 10 15 2 5 -8 13 -8 27 -1 14 8 19 7 19 -1 0 -9 3 -9 14 0 10 8 16 9
21 1 3 -6 11 -7 17 -4 19 12 78 11 78 0 0 -6 5 -4 10 4 8 12 10 12 10 1 0 -11
3 -11 17 0 13 11 17 11 20 2 3 -9 10 -10 24 -3 14 8 19 7 19 -2 0 -10 2 -10 9
1 6 9 11 10 15 2 4 -6 13 -8 19 -4 18 11 47 11 47 0 0 -5 7 -4 15 3 12 10 15
10 15 0 0 -10 3 -10 15 0 12 10 15 10 15 0 0 -10 3 -10 15 0 12 10 15 10 15
-1 0 -12 2 -12 9 0 6 9 10 10 12 2 3 -9 12 -9 32 -2 20 8 27 7 27 -2 0 -8 3
-8 9 2 6 9 10 10 12 2 3 -9 12 -9 32 -2 15 6 27 7 27 2 0 -11 19 -9 39 3 7 5
16 5 20 -1 7 -10 26 -11 36 -1 4 4 17 3 30 -2 15 -6 27 -4 34 3 9 9 14 9 20
-2 6 -10 13 -11 27 -3 11 6 27 7 41 1 14 -5 25 -4 29 2 4 6 11 6 20 -2 11 -9
14 -8 14 2 0 9 3 10 8 4 8 -12 32 -13 50 -2 7 5 12 3 12 -3 0 -8 6 -8 20 0 15
8 20 8 20 -1 0 -7 7 -8 18 -4 22 10 62 10 86 0 14 -6 17 -5 12 4 -9 14 16 11
26 -4 5 -6 8 -4 8 5 0 12 2 12 9 1 7 -10 13 -11 30 -2 11 7 21 8 21 4 0 -4 14
-8 30 -8 17 0 30 3 30 6 0 3 7 6 15 6 8 0 15 -5 15 -11 0 -6 5 -4 10 4 5 8 10
10 10 3 0 -12 17 -12 37 0 6 4 15 3 18 -3 5 -8 11 -7 21 1 11 9 14 9 14 0 0
-7 5 -9 13 -4 20 12 37 12 37 0 0 -7 5 -5 10 3 5 8 10 10 10 3 0 -12 17 -12
38 0 6 5 12 4 12 0 0 -12 53 -10 62 2 5 6 8 5 8 -4 0 -11 3 -11 16 0 13 10 17
10 23 0 7 -10 13 -11 31 -1 17 9 21 9 15 0 -6 -9 -2 -9 14 -1 11 7 21 8 21 3
0 -4 9 -8 20 -9 11 -1 18 3 14 8 -7 12 19 7 28 -6 5 -6 8 -4 8 5 0 12 2 12 9
1 7 -10 13 -11 30 -2 11 7 21 8 21 4 0 -4 16 -8 35 -9 18 0 32 2 30 6 -2 4 2
7 10 7 8 0 15 -3 15 -7 0 -8 44 -5 59 5 6 3 11 1 11 -6 0 -8 4 -8 15 1 8 7 15
8 15 3 0 -5 9 -9 20 -9 11 0 20 4 20 7 0 4 13 4 30 -1 19 -5 30 -5 30 1 0 6 7
6 18 2 21 -10 43 -10 59 0 6 4 15 2 19 -4 4 -8 9 -7 15 2 7 11 9 11 9 -1 0
-13 1 -13 10 0 5 8 10 10 10 5 0 -11 39 -13 56 -2 5 3 16 2 24 -3 8 -5 22 -5
32 1 12 7 18 6 18 -1 0 -7 6 -8 17 -2 9 6 29 6 45 2 17 -5 30 -5 34 2 4 6 9 6
14 -3 7 -10 12 -10 23 0 11 8 17 9 22 1 3 -6 12 -7 18 -3 17 11 51 10 59 -2 5
-6 8 -4 8 5 0 12 2 12 9 1 7 -10 13 -11 30 -2 15 8 21 9 21 1 0 -6 5 -8 12 -4
19 12 48 12 48 1 0 -5 8 -3 17 4 14 12 15 12 9 1 -7 -11 -4 -12 12 -3 11 6 23
11 27 11 3 0 3 -5 -1 -11 -4 -7 2 -6 17 1 17 10 24 10 27 2 3 -9 9 -9 23 -2
14 8 19 7 19 -1 0 -8 4 -8 15 1 11 9 15 9 15 1 0 -7 5 -9 12 -5 19 12 78 11
78 -1 0 -5 5 -3 10 5 8 12 10 12 10 1 0 -11 3 -11 15 -1 12 10 15 10 15 -1 0
-10 3 -10 11 -2 8 8 20 8 35 3 16 -6 24 -6 24 1 0 6 7 6 19 -1 12 -6 22 -6 25
-1 7 10 31 9 42 -2 4 -4 13 -2 21 4 10 9 13 8 13 -1 0 -10 3 -10 15 0 11 9 15
9 15 1 0 -7 5 -9 12 -5 19 12 48 12 48 1 0 -5 7 -4 15 3 12 10 15 10 15 0 0
-10 4 -10 16 1 13 10 17 10 25 -2 6 -9 12 -10 17 -4 10 14 42 18 42 5 0 -5 5
-10 11 -10 5 0 7 5 4 10 -3 6 0 10 8 10 20 0 91 71 95 94 2 10 -2 23 -10 27
-8 6 -9 9 -1 9 12 0 12 17 0 37 -4 6 -1 13 5 16 10 3 10 7 1 17 -9 10 -9 18
-1 34 8 15 8 21 0 24 -8 2 -9 9 -3 20 14 26 14 34 1 42 -8 5 -9 13 -4 21 12
19 14 39 4 39 -11 0 -7 33 5 43 7 5 7 10 0 15 -5 4 -10 14 -10 22 0 8 5 18 10
23 6 4 4 11 -5 17 -13 9 -13 10 0 10 12 0 12 2 2 9 -15 9 -15 20 -2 36 5 6 5
17 0 25 -5 8 -5 21 1 32 7 12 6 18 -1 18 -7 0 -8 6 -2 18 5 9 6 26 2 37 -4 11
-3 28 2 38 5 10 5 17 -1 17 -5 0 -8 11 -7 24 0 13 4 22 9 19 4 -2 7 1 7 6 0 6
-4 11 -9 11 -4 0 -6 12 -4 28 7 44 7 46 -1 71 -5 14 -4 21 1 18 5 -4 10 0 10
8 0 8 -4 15 -8 15 -9 0 -6 20 5 39 5 8 4 16 -4 21 -13 8 -13 19 1 37 7 7 6 14
-1 18 -5 3 -10 11 -10 16 0 6 4 8 8 5 10 -6 9 25 -2 42 -4 7 -2 12 6 12 10 0
10 2 -1 9 -9 6 -10 11 -2 15 17 11 13 29 -5 22 -13 -5 -14 -4 -6 7 7 8 9 17 5
20 -3 4 0 7 8 7 9 1 6 7 -9 20 -12 10 -18 21 -13 24 5 4 -2 18 -15 31 -14 14
-30 23 -35 20 -5 -4 -9 0 -9 7 0 12 -347 14 -2138 14 -1175 0 -2146 -2 -2158
-5z"/>
<path d="M4787 3263 c-1 -1 -15 -4 -31 -7 -16 -3 -32 -10 -36 -16 -4 -7 -11
-12 -16 -13 -5 -1 -8 -5 -6 -9 1 -5 -3 -8 -9 -8 -5 0 -7 -4 -4 -10 3 -5 2 -10
-2 -10 -5 0 -14 -9 -21 -21 -8 -12 -10 -19 -5 -16 5 3 10 -9 10 -26 2 -53 18
-91 34 -81 4 2 9 -3 13 -11 3 -8 12 -15 21 -15 8 0 15 -4 15 -8 0 -16 86 -7
116 12 41 26 68 56 52 56 -10 0 -10 2 0 9 17 10 22 42 9 59 -6 8 -6 12 1 12 7
0 4 12 -6 30 -9 16 -23 30 -31 30 -8 0 -11 6 -7 16 3 8 2 12 -3 9 -5 -3 -13 0
-16 6 -4 5 -13 8 -21 5 -8 -3 -14 -2 -14 2 0 7 -37 11 -43 5z m-39 -123 c0
-38 -3 -72 -8 -75 -9 -6 -36 34 -32 48 1 4 -2 7 -7 7 -14 0 0 47 20 69 11 12
21 21 23 21 2 0 3 -31 4 -70z m62 -40 c0 -12 7 -20 18 -20 14 0 15 -2 2 -9 -8
-6 -17 -8 -21 -5 -4 2 -10 0 -14 -5 -3 -6 -12 -8 -21 -4 -12 5 -12 8 3 20 10
8 12 12 6 8 -15 -7 -16 -4 -7 19 9 23 34 20 34 -4z"/>
</g>
</svg>
